<?xml version="1.0" encoding="iso-8859-1"?>
<!-- Uploaded to: SVG Repo, www.svgrepo.com, Generator: SVG Repo Mixer Tools -->
<svg fill="#000000" height="800px" width="800px" version="1.1" id="Layer_1" xmlns="http://www.w3.org/2000/svg" xmlns:xlink="http://www.w3.org/1999/xlink" 
	 viewBox="0 0 504.111 504.111" xml:space="preserve">
<g>
	<g>
		<g>
			<path d="M491.02,93.546c-21.655-48.623-65.922-76.506-121.453-76.506c-53.55,0-94.636,22.62-117.508,64.159
				C229.178,39.66,188.1,17.039,134.55,17.039c-55.531,0-99.806,27.883-121.453,76.506C-13.527,153.324,1.17,227.379,50.54,282.222
				c33.003,36.671,193.947,200.729,195.534,202.341c1.578,1.603,3.735,2.51,5.984,2.51c2.249,0,4.407-0.906,5.985-2.51
				c1.586-1.612,162.531-165.67,195.534-202.341C502.939,227.379,517.635,153.324,491.02,93.546z M428.623,259.761
				c-16.594,18.44-68.986,71.462-115.208,118.247c-20.824,21.076-40.515,41.01-55.355,56.177c-1.578,1.62-3.743,2.526-6.001,2.526
				c-2.258,0-4.423-0.906-6.001-2.526c-14.84-15.167-34.539-35.101-55.363-56.177c-46.223-46.785-98.606-99.806-115.2-118.247
				C29.431,208.594,26.367,146.273,43.758,107.21c16.258-36.495,48.497-56.597,90.792-56.597c55.548,0,89.801,45.828,117.508,98.917
				c27.707-53.089,61.96-98.917,117.508-98.917c42.286,0,74.534,20.102,90.783,56.597
				C477.75,146.273,474.678,208.594,428.623,259.761z"/>
			<path d="M369.565,67.4c-51.502,0-83.288,50.184-109.979,104.423c-2.82,5.741-12.238,5.741-15.058,0
				C217.837,117.584,186.051,67.4,134.549,67.4c-35.261,0-62.061,16.56-75.449,46.634c-15.192,34.111-12.154,88.92,28.865,134.497
				c16.334,18.155,68.583,71.025,114.671,117.676c18.147,18.373,35.445,35.882,49.421,50.117
				c13.975-14.235,31.274-31.744,49.421-50.117c46.088-46.651,98.338-99.521,114.671-117.676
				c41.019-45.576,44.057-100.386,28.865-134.497C431.626,83.96,404.826,67.4,369.565,67.4z"/>
		</g>
	</g>
</g>
</svg>